<svg xmlns="http://www.w3.org/2000/svg" viewBox="0 0 1200 675" role="img" aria-labelledby="title desc">
  <title id="title">SilRahi tailoring platform preview</title>
  <desc id="desc">A tailoring marketplace thumbnail with tailor discovery, booking flow, chat, and location map.</desc>
  <defs>
    <linearGradient id="bg" x1="0" y1="0" x2="1" y2="1">
      <stop offset="0" stop-color="#111827"/>
      <stop offset="0.5" stop-color="#4c1d95"/>
      <stop offset="1" stop-color="#831843"/>
    </linearGradient>
    <linearGradient id="panel" x1="0" y1="0" x2="1" y2="1">
      <stop offset="0" stop-color="#1f2937"/>
      <stop offset="1" stop-color="#312e81"/>
    </linearGradient>
    <filter id="shadow" x="-20%" y="-20%" width="140%" height="140%">
      <feDropShadow dx="0" dy="18" stdDeviation="24" flood-color="#020617" flood-opacity="0.35"/>
    </filter>
  </defs>
  <rect width="1200" height="675" fill="url(#bg)"/>
  <circle cx="1015" cy="122" r="235" fill="#f9a8d4" opacity="0.13"/>
  <circle cx="160" cy="610" r="260" fill="#22d3ee" opacity="0.11"/>
  <g transform="translate(84 72)">
    <text x="0" y="28" fill="#fff7ed" font-family="Inter,Segoe UI,Arial,sans-serif" font-size="32" font-weight="800">SilRahi</text>
    <text x="0" y="64" fill="#e9d5ff" font-family="Inter,Segoe UI,Arial,sans-serif" font-size="18">Verified women tailors • Bookings • Location discovery</text>
  </g>
  <g filter="url(#shadow)">
    <rect x="76" y="146" width="342" height="450" rx="28" fill="url(#panel)" stroke="#8b5cf6"/>
    <rect x="456" y="146" width="302" height="450" rx="28" fill="#111827" stroke="#6d28d9"/>
    <rect x="796" y="146" width="328" height="450" rx="28" fill="#111827" stroke="#6d28d9"/>
  </g>
  <g transform="translate(116 190)" font-family="Inter,Segoe UI,Arial,sans-serif">
    <circle cx="54" cy="48" r="42" fill="#f9a8d4"/>
    <path d="M40 50 C44 78 64 78 70 50" fill="none" stroke="#831843" stroke-width="6" stroke-linecap="round"/>
    <circle cx="42" cy="42" r="4" fill="#831843"/>
    <circle cx="66" cy="42" r="4" fill="#831843"/>
    <text x="116" y="42" fill="#fff" font-size="24" font-weight="700">Asha Tailors</text>
    <text x="116" y="72" fill="#c4b5fd" font-size="16">4.9 rating • 2.1 km away</text>
    <rect x="0" y="128" width="262" height="46" rx="14" fill="#4c1d95"/>
    <text x="20" y="157" fill="#f5f3ff" font-size="18">Blouse stitching</text>
    <rect x="0" y="192" width="262" height="46" rx="14" fill="#4c1d95"/>
    <text x="20" y="221" fill="#f5f3ff" font-size="18">Alterations</text>
    <rect x="0" y="256" width="262" height="46" rx="14" fill="#4c1d95"/>
    <text x="20" y="285" fill="#f5f3ff" font-size="18">Design samples</text>
    <rect x="0" y="344" width="262" height="54" rx="18" fill="#f97316"/>
    <text x="66" y="379" fill="#fff7ed" font-size="20" font-weight="800">Book Now</text>
  </g>
  <g transform="translate(496 188)" font-family="Inter,Segoe UI,Arial,sans-serif">
    <text x="0" y="24" fill="#f5f3ff" font-size="24" font-weight="700">Order Flow</text>
    <g fill="#312e81" stroke="#8b5cf6">
      <rect x="0" y="62" width="220" height="62" rx="16"/>
      <rect x="0" y="154" width="220" height="62" rx="16"/>
      <rect x="0" y="246" width="220" height="62" rx="16"/>
      <rect x="0" y="338" width="220" height="62" rx="16"/>
    </g>
    <g fill="#f5f3ff" font-size="18">
      <text x="24" y="100">Request booking</text>
      <text x="24" y="192">Share measures</text>
      <text x="24" y="284">Track status</text>
      <text x="24" y="376">Review tailor</text>
    </g>
    <path d="M110 126 V150 M110 218 V242 M110 310 V334" stroke="#f9a8d4" stroke-width="6" stroke-linecap="round"/>
  </g>
  <g transform="translate(836 190)">
    <rect x="0" y="0" width="248" height="356" rx="22" fill="#172554"/>
    <path d="M18 294 C54 232 92 220 128 166 C166 108 198 86 230 36" fill="none" stroke="#64748b" stroke-width="18" stroke-linecap="round"/>
    <path d="M28 40 H220 M28 100 H220 M28 160 H220 M28 220 H220 M28 280 H220" stroke="#334155" stroke-width="8"/>
    <path d="M58 22 V334 M124 22 V334 M190 22 V334" stroke="#334155" stroke-width="8"/>
    <path d="M126 78 C98 78 76 100 76 128 C76 166 126 218 126 218 C126 218 176 166 176 128 C176 100 154 78 126 78Z" fill="#f97316"/>
    <circle cx="126" cy="128" r="20" fill="#fff7ed"/>
    <circle cx="74" cy="260" r="14" fill="#22c55e"/>
    <circle cx="194" cy="72" r="14" fill="#a78bfa"/>
  </g>
</svg>
